<svg width="26" height="26" viewBox="0 0 26 26" fill="none" xmlns="http://www.w3.org/2000/svg">
<path d="M23.2273 0.483032H2.77273H2.5C1.39543 0.483032 0.5 1.37876 0.5 2.48333C0.5 2.66313 0.5 2.7905 0.5 2.823V23.2775V23.483C0.5 24.5876 1.39572 25.483 2.50029 25.483C2.64377 25.483 2.74401 25.483 2.77272 25.483H23.2273C23.256 25.483 23.3562 25.483 23.4997 25.483C24.6043 25.483 25.5 24.5871 25.5 23.4825C25.5 23.3757 25.5 23.3019 25.5 23.2775V2.82297C25.5 2.79047 25.5 2.66311 25.5 2.48333C25.5 1.37876 24.6043 0.483032 23.4997 0.483032C23.3562 0.483032 23.256 0.483032 23.2273 0.483032ZM15.2727 23.2775H2.77273V14.1866H15.2727V23.2775ZM15.2727 11.9139H2.77273V2.823L15.2727 2.82297V11.9139ZM23.2273 23.2775H17.5455V2.823H23.2273V23.2775Z" fill="#CDCDCD"/>
</svg>
